<?xml version="1.0" standalone="no"?>
<!DOCTYPE svg PUBLIC "-//W3C//DTD SVG 20010904//EN"
 "http://www.w3.org/TR/2001/REC-SVG-20010904/DTD/svg10.dtd">
<svg version="1.0" xmlns="http://www.w3.org/2000/svg"
 width="129.000000pt" height="129.000000pt" viewBox="0 0 129.000000 129.000000"
 preserveAspectRatio="xMidYMid meet">
<metadata>
Created by potrace 1.14, written by Peter Selinger 2001-2017
</metadata>
<g transform="translate(0.000000,129.000000) scale(0.100000,-0.100000)"
fill="#000000" stroke="none">
<path d="M696 1272 c-4 -4 -11 -7 -14 -7 -15 0 -78 -29 -94 -43 -9 -8 -36 -14
-60 -14 -24 -1 -70 -7 -103 -15 -33 -7 -70 -16 -82 -19 -25 -5 -99 -44 -148
-77 -77 -53 -157 -164 -183 -252 -14 -49 -5 -246 13 -275 3 -5 8 -26 11 -47 3
-21 7 -49 9 -63 6 -44 46 -140 57 -140 5 0 8 -6 8 -14 0 -7 25 -38 56 -69 57
-56 137 -105 209 -127 22 -6 47 -14 55 -17 8 -3 25 -7 37 -9 13 -1 35 -11 50
-22 46 -32 98 -43 190 -41 77 2 95 6 145 33 56 30 103 64 137 97 9 10 36 27
61 40 52 26 174 146 185 180 4 13 10 26 14 29 35 29 53 251 26 317 -8 18 -12
33 -9 33 6 0 -43 98 -66 130 -9 14 -20 38 -24 55 -19 75 -76 177 -133 233 -88
87 -128 106 -244 109 -53 1 -100 -1 -103 -5z m148 -95 c33 -17 54 -33 47 -35
-7 -2 -18 1 -24 7 -6 6 -21 11 -32 11 -12 0 -25 3 -29 8 -4 4 -40 15 -79 24
l-72 16 64 0 c50 -1 77 -8 125 -31z m81 -220 c79 -26 101 -42 114 -78 9 -27 8
-217 -2 -264 -11 -50 -21 -81 -30 -92 -5 -7 -7 -13 -4 -13 4 0 -5 -21 -19 -47
-15 -27 -32 -59 -40 -72 -19 -35 -107 -131 -120 -131 -6 0 -17 -7 -24 -15 -20
-24 -130 -54 -180 -48 -135 14 -249 125 -292 283 -17 63 -18 75 -19 166 -1 62
3 88 17 110 23 37 124 134 140 134 7 0 14 3 16 8 6 14 126 63 183 74 59 13
203 4 260 -15z m-652 -423 c2 -44 7 -87 12 -95 4 -8 0 -7 -11 4 -14 13 -19 33
-20 85 -1 61 4 98 11 90 2 -2 5 -39 8 -84z m966 44 c1 -24 2 -47 2 -53 3 -58
-28 -141 -74 -202 -26 -36 -97 -96 -104 -89 -3 2 18 37 45 78 66 98 90 147
102 210 18 88 20 98 24 98 2 0 4 -19 5 -42z"/>
</g>
</svg>
